HIERARCHY
ROOT Hips
{
	OFFSET 0.00000 0.00000 0.00000
	CHANNELS 6 Xposition Yposition Zposition Zrotation Yrotation Xrotation 
	JOINT RightUpLegDummy
	{
		OFFSET 0 0 0
		CHANNELS 3 Zrotation Yrotation Xrotation
		JOINT RightUpLeg
		{
			OFFSET -3.52197 -3.41223 0.04002
			CHANNELS 3 Zrotation Yrotation Xrotation
			JOINT RightLeg
			{
				OFFSET 0.00006 -17.42390 1.60435
				CHANNELS 3 Zrotation Yrotation Xrotation
				JOINT RightFoot
				{
					OFFSET 0.06153 -16.50078 -1.63901
					CHANNELS 3 Zrotation Yrotation Xrotation
					JOINT RightToes
					{
						OFFSET 0.00298 -1.73825 3.34613
						CHANNELS 3 Zrotation Yrotation Xrotation
						End Site
						{
							OFFSET 0.00480 -0.05416 3.85043
						}
					}
				}
			}
		}
	}
	JOINT SpineDummy
	{
		OFFSET 0 0 0
		CHANNELS 3 Zrotation Yrotation Xrotation
		JOINT Spine
		{
			OFFSET 0.00000 4.68130 0.00000
			CHANNELS 3 Zrotation Yrotation Xrotation
			JOINT Spine1
			{
				OFFSET -0.00000 10.10138 0.05002
				CHANNELS 3 Zrotation Yrotation Xrotation
				JOINT HEadDummy
				{
					OFFSET 0 0 0
					CHANNELS 3 Zrotation Yrotation Xrotation
					JOINT Head
					{
						OFFSET -0.00000 3.43865 0.00438
						CHANNELS 3 Zrotation Yrotation Xrotation
						End Site
						{
							OFFSET -0.11417 5.02924 0.98962
						}
					}
				}
				JOINT LeftShoulder1Dummy
				{
					OFFSET 0 0 0
					CHANNELS 3 Zrotation Yrotation Xrotation
					JOINT LeftShoulder1
					{
						OFFSET 3.53937 -0.14262 -0.08662
						CHANNELS 3 Zrotation Yrotation Xrotation
						JOINT LeftArm
						{
							OFFSET 4.04833 -0.00133 0.12681
							CHANNELS 3 Zrotation Yrotation Xrotation
							JOINT LeftForeArm
							{
								OFFSET 10.33880 -0.01036 -0.55515
								CHANNELS 3 Zrotation Yrotation Xrotation
								JOINT LeftHand
								{
									OFFSET 8.69677 0.07543 0.40060
									CHANNELS 3 Zrotation Yrotation Xrotation
									End Site
									{
										OFFSET 5.28377 -0.21905 0.59205
									}
								}
							}
						}
					}
				}
				JOINT RightShoulderDummy
				{
					OFFSET 0 0 0
					CHANNELS 3 Zrotation Yrotation Xrotation
					JOINT RightShoulder
					{
						OFFSET -3.53937 -0.14262 -0.08660
						CHANNELS 3 Zrotation Yrotation Xrotation
						JOINT RightArm
						{
							OFFSET -4.04833 -0.00133 0.12683
							CHANNELS 3 Zrotation Yrotation Xrotation
							JOINT RightForeArm
							{
								OFFSET -10.37987 -0.01039 -0.55511
								CHANNELS 3 Zrotation Yrotation Xrotation
								JOINT RightHand
								{
									OFFSET -8.67398 0.07538 0.40058
									CHANNELS 3 Zrotation Yrotation Xrotation
									End Site
									{
										OFFSET -5.24810 -0.21916 0.59204
									}
								}
							}
						}
					}
				}
			}
		}
	}
	JOINT LeftUpLegDummy
	{
		OFFSET 0 0 0
		CHANNELS 3 Zrotation Yrotation Xrotation
		JOINT LeftUpLeg
		{
			OFFSET 3.52197 -3.41223 0.04002
			CHANNELS 3 Zrotation Yrotation Xrotation
			JOINT LeftLeg
			{
				OFFSET -0.00012 -17.42399 1.60337
				CHANNELS 3 Zrotation Yrotation Xrotation
				JOINT LeftFoot
				{
					OFFSET -0.09972 -16.50070 -1.63802
					CHANNELS 3 Zrotation Yrotation Xrotation
					JOINT LeftToes
					{
						OFFSET -0.01575 -1.73823 3.34611
						CHANNELS 3 Zrotation Yrotation Xrotation
						End Site
						{
							OFFSET 0.03150 -0.01868 3.85031
						}
					}
				}
			}
		}
	}
}
MOTION
Frames: 16
Frame Time: 0.033333
43.2171 39.8309 81.3618 -179.2720 1.6456 178.1180 0.0000 0.0000 0.0000 3.5443 -0.8406 1.8890 -0.7264 -3.7282 3.5376 -3.9848 0.2633 -3.4098 0.0000 -0.0000 -0.0000 0.0000 0.0000 0.0000 0.7060 -0.5190 -0.1887 2.7973 -1.1632 2.2117 -0.0000 0.0000 -0.0000 1.2596 3.9336 -4.7266 -0.0000 0.0000 -0.0000 -34.5451 -2.3833 2.3893 -45.7138 -15.6878 -14.8696 -11.6801 5.1198 47.8460 14.3931 -3.7741 -1.1075 -0.0000 0.0000 -0.0000 35.0089 5.2061 3.5739 42.3810 8.0908 -12.7504 11.8435 1.7993 23.3483 -14.9024 -3.0931 -0.3144 0.0000 0.0000 0.0000 1.1276 1.8033 2.0637 0.6478 3.7019 5.2594 2.6219 -0.0985 -5.2726 0.0000 0.0000 -0.0000
43.2030 39.8248 81.3517 -179.2100 1.7387 178.1930 0.0000 0.0000 0.0000 3.6319 -0.7283 1.7723 -0.8114 -3.7475 3.6391 -3.9424 0.2608 -3.4671 0.0000 -0.0000 -0.0000 0.0000 0.0000 0.0000 0.6920 -0.3798 -0.3359 2.9237 -1.0470 2.2529 -0.0000 0.0000 -0.0000 1.2617 3.7429 -4.6914 -0.0000 0.0000 -0.0000 -34.5608 -2.4213 2.4056 -45.7106 -15.7564 -14.9784 -11.6060 5.1163 48.0018 14.5601 -3.4131 -1.0781 -0.0000 0.0000 -0.0000 34.8826 5.1788 3.5515 42.3906 8.1567 -12.9324 11.7962 1.6836 23.4011 -14.6616 -2.6588 -0.3616 0.0000 0.0000 0.0000 1.2770 2.0048 1.9471 0.4482 3.6130 5.3978 2.6981 -0.1034 -5.3771 0.0000 0.0000 -0.0000
43.1658 39.8223 81.3421 -179.2160 1.8520 178.1810 0.0000 0.0000 0.0000 3.5784 -0.7347 1.7429 -0.8317 -3.6232 3.7424 -3.9099 0.2589 -3.5290 0.0000 -0.0000 -0.0000 0.0000 0.0000 0.0000 0.8091 -0.2818 -0.5205 2.6742 -0.9065 2.4435 -0.0000 0.0000 -0.0000 1.3389 3.2887 -4.7055 -0.0000 0.0000 -0.0000 -34.1936 -2.4014 2.3756 -45.8151 -16.0011 -15.3360 -11.3591 5.1011 48.6367 14.7443 -3.0867 -1.0532 -0.0000 0.0000 -0.0000 34.9929 5.1886 3.5653 42.2542 8.3804 -13.2494 11.7106 1.4521 23.4197 -14.3799 -2.1975 -0.4095 0.0000 0.0000 0.0000 1.2251 2.0115 1.9972 0.4241 3.7283 5.3767 2.7448 -0.1064 -5.3944 0.0000 0.0000 -0.0000
43.1254 39.8288 81.3347 -179.3070 2.1626 177.8260 0.0000 0.0000 0.0000 3.3861 -0.9026 2.1349 -0.7456 -3.1622 3.7204 -3.9624 0.2623 -3.5471 0.0000 -0.0000 -0.0000 0.0000 0.0000 0.0000 0.8609 -0.0869 -0.2358 2.4556 -0.6602 2.4956 -0.0000 0.0000 -0.0000 1.2362 2.7974 -4.7736 -0.0000 0.0000 -0.0000 -33.9500 -2.4014 2.3610 -45.6633 -16.2361 -15.7536 -11.1078 5.0752 49.6217 14.8885 -3.1977 -1.0773 -0.0000 0.0000 -0.0000 35.0815 5.1902 3.5738 42.1111 8.4229 -13.6216 11.5765 1.3023 23.5089 -14.2882 -2.2494 -0.4009 0.0000 0.0000 0.0000 1.0278 1.9166 2.5925 0.5203 4.1283 5.0405 2.7538 -0.1070 -5.2915 0.0000 0.0000 -0.0000
43.0697 39.8309 81.3372 -178.9920 2.1256 177.5920 0.0000 0.0000 0.0000 3.5997 -0.8882 2.6184 -0.6476 -3.2399 3.2779 -4.0286 0.2660 -3.3635 0.0000 -0.0000 -0.0000 0.0000 0.0000 0.0000 1.5990 -0.1337 0.0470 1.9606 -0.6422 2.4124 -0.0000 0.0000 -0.0000 1.0541 2.7368 -4.9371 -0.0000 0.0000 -0.0000 -33.8064 -2.4077 2.3549 -45.3692 -16.1853 -16.0075 -10.9884 5.0565 50.2948 15.0968 -3.3961 -1.1173 -0.0000 0.0000 -0.0000 35.2108 5.2097 3.5933 41.8481 8.3554 -14.0088 11.4308 0.9583 23.8937 -14.1129 -2.2675 -0.3939 0.0000 0.0000 0.0000 1.3443 2.1436 2.7188 0.4306 3.8707 5.3172 2.8538 -0.1134 -5.4679 0.0000 0.0000 -0.0000
43.0461 39.8299 81.3496 -178.9700 2.2826 177.7550 0.0000 0.0000 0.0000 3.5767 -0.8836 2.3735 -0.6054 -3.0841 3.3647 -4.1000 0.2707 -3.3815 0.0000 -0.0000 -0.0000 0.0000 0.0000 0.0000 1.6530 -0.0530 -0.0987 1.9570 -0.5618 2.3469 -0.0000 0.0000 -0.0000 0.7986 2.9160 -5.1553 -0.0000 0.0000 -0.0000 -33.8917 -2.4504 2.3771 -44.9514 -15.8931 -16.1315 -10.9788 5.0537 50.3917 15.2417 -3.3230 -1.1194 -0.0000 0.0000 -0.0000 35.1721 5.2087 3.5894 41.5606 8.2413 -14.4700 11.2851 0.3398 24.4684 -13.7573 -1.7932 -0.4376 0.0000 0.0000 0.0000 1.4131 2.2779 2.5322 0.2736 3.9176 5.3397 2.9171 -0.1175 -5.4949 0.0000 0.0000 -0.0000
43.0178 39.8259 81.3614 -178.8730 2.2194 177.8080 0.0000 0.0000 0.0000 3.6295 -0.8619 2.2962 -0.5896 -3.1694 3.3751 -4.1346 0.2729 -3.3871 0.0000 -0.0000 -0.0000 0.0000 0.0000 0.0000 1.6244 0.0024 -0.0868 2.2175 -0.5552 2.2344 -0.0000 0.0000 -0.0000 0.4958 2.9348 -5.2716 -0.0000 0.0000 -0.0000 -34.1825 -2.5369 2.4293 -44.4588 -15.6484 -16.3893 -10.8908 5.0544 50.4045 15.1662 -3.2029 -1.0987 -0.0000 0.0000 -0.0000 34.8507 5.1498 3.5369 41.4361 7.9549 -14.9475 11.1499 -0.1782 24.7828 -13.7666 -1.5907 -0.4603 0.0000 0.0000 0.0000 1.4364 2.2331 2.3875 0.3547 3.8954 5.4660 2.8573 -0.1137 -5.5677 0.0000 0.0000 -0.0000
43.0013 39.8251 81.3748 -178.8540 2.0996 177.8820 0.0000 0.0000 0.0000 3.6300 -0.8432 2.1814 -0.6130 -3.3117 3.4145 -4.1847 0.2762 -3.4150 0.0000 -0.0000 -0.0000 0.0000 0.0000 0.0000 1.3433 0.0917 -0.0770 2.6753 -0.5396 2.1102 -0.0000 0.0000 -0.0000 0.2688 2.8400 -5.1802 -0.0000 0.0000 -0.0000 -34.4562 -2.6164 2.4782 -44.0351 -15.5967 -16.8636 -10.6479 5.0455 50.7956 15.0628 -3.2873 -1.1014 -0.0000 0.0000 -0.0000 34.4835 5.0707 3.4726 41.3973 7.4012 -15.3004 11.0497 -0.3285 24.6977 -14.3985 -2.2831 -0.3994 0.0000 0.0000 0.0000 1.3491 2.0762 2.2809 0.5075 3.9193 5.4382 2.7294 -0.1054 -5.5485 0.0000 0.0000 -0.0000
42.9929 39.8287 81.3812 -178.8740 2.0395 177.9660 0.0000 0.0000 0.0000 3.6039 -0.8307 2.0794 -0.6386 -3.3965 3.4351 -4.2531 0.2807 -3.4523 0.0000 -0.0000 -0.0000 0.0000 0.0000 0.0000 1.0902 0.1427 -0.1248 3.0266 -0.5439 2.0254 -0.0000 0.0000 -0.0000 0.2233 2.9297 -4.9838 -0.0000 0.0000 -0.0000 -34.6451 -2.6252 2.4935 -43.6872 -15.5706 -17.3061 -10.4275 5.0327 51.3013 15.1808 -3.3332 -1.1159 -0.0000 0.0000 -0.0000 34.3089 5.0424 3.4460 41.2182 6.8102 -15.5503 10.9819 -0.4314 24.5913 -14.9512 -2.9733 -0.3308 0.0000 0.0000 0.0000 1.3786 2.1480 2.2675 0.3608 3.8046 5.2459 2.7014 -0.1036 -5.4741 0.0000 0.0000 -0.0000
42.9843 39.8322 81.3847 -178.8430 1.9794 178.0650 0.0000 0.0000 0.0000 3.6240 -0.8079 2.0012 -0.6421 -3.4845 3.3864 -4.2785 0.2823 -3.4552 0.0000 -0.0000 -0.0000 0.0000 0.0000 0.0000 1.1030 0.0920 -0.2252 3.0635 -0.6050 1.9916 -0.0000 0.0000 -0.0000 0.4108 3.0951 -4.9166 -0.0000 0.0000 -0.0000 -34.7247 -2.5705 2.4762 -43.3919 -15.4296 -17.4843 -10.3913 5.0284 51.4555 15.3406 -3.1308 -1.1028 -0.0000 0.0000 -0.0000 34.3816 5.0844 3.4693 40.8359 6.4341 -15.8705 10.9129 -0.8180 24.6458 -14.7051 -2.6578 -0.3614 0.0000 0.0000 0.0000 1.5562 2.3991 2.2349 0.0267 3.5341 5.0791 2.7576 -0.1073 -5.4209 0.0000 0.0000 -0.0000
42.9780 39.8333 81.3983 -178.7710 1.8163 178.1650 0.0000 0.0000 0.0000 3.6957 -0.7617 1.9257 -0.6541 -3.6838 3.2920 -4.2403 0.2797 -3.4092 0.0000 -0.0000 -0.0000 0.0000 0.0000 0.0000 1.3799 -0.0736 -0.3068 2.7093 -0.7204 2.0110 -0.0000 0.0000 -0.0000 0.8166 3.1004 -5.0769 -0.0000 0.0000 -0.0000 -34.6002 -2.4841 2.4335 -43.1931 -15.1912 -17.4539 -10.4865 5.0360 51.1710 15.2216 -2.9845 -1.0757 -0.0000 0.0000 -0.0000 34.6434 5.1604 3.5230 40.3700 6.3153 -16.4669 10.7414 -1.6878 25.4044 -13.6325 -1.1334 -0.5064 0.0000 0.0000 0.0000 1.6266 2.4085 2.0921 0.0086 3.3781 5.0605 2.7022 -0.1037 -5.3907 0.0000 0.0000 -0.0000
42.9837 39.8335 81.4229 -178.7530 1.6497 178.2150 0.0000 0.0000 0.0000 3.7494 -0.6995 1.8514 -0.7154 -3.9057 3.2602 -4.2025 0.2772 -3.3715 0.0000 -0.0000 -0.0000 0.0000 0.0000 0.0000 1.5258 -0.2058 -0.2420 2.4175 -0.8035 1.9838 -0.0000 0.0000 -0.0000 1.2146 2.9560 -5.2817 -0.0000 0.0000 -0.0000 -34.4567 -2.4144 2.3966 -43.0562 -14.9321 -17.3955 -10.5843 5.0473 50.7639 14.9765 -3.1607 -1.0793 -0.0000 0.0000 -0.0000 34.8569 5.2056 3.5602 40.0486 6.1733 -17.0130 10.5724 -2.4957 26.1418 -12.9483 -0.1173 -0.5885 0.0000 0.0000 0.0000 1.4640 2.0815 1.9521 0.3883 3.5177 5.0905 2.4883 -0.0899 -5.3348 0.0000 0.0000 -0.0000
42.9990 39.8332 81.4450 -178.8150 1.6393 178.1930 0.0000 0.0000 0.0000 3.7415 -0.6594 1.8111 -0.7890 -3.9714 3.3187 -4.2274 0.2788 -3.3843 0.0000 -0.0000 -0.0000 0.0000 0.0000 0.0000 1.5397 -0.2430 -0.1025 2.1983 -0.7947 1.9527 -0.0000 0.0000 -0.0000 1.5188 2.9444 -5.3625 -0.0000 0.0000 -0.0000 -34.2721 -2.3580 2.3628 -43.0676 -14.7438 -17.4263 -10.5894 5.0529 50.5758 14.9934 -3.3985 -1.1097 -0.0000 0.0000 -0.0000 35.0895 5.2421 3.5958 39.8042 5.8655 -17.1548 10.5530 -2.8384 26.2224 -13.0205 -0.2420 -0.5778 0.0000 0.0000 0.0000 1.2861 1.8300 1.9548 0.6670 3.7403 5.0452 2.3265 -0.0795 -5.2546 0.0000 0.0000 -0.0000
43.0115 39.8324 81.4577 -178.8730 1.7318 178.1660 0.0000 0.0000 0.0000 3.7086 -0.6665 1.7976 -0.7982 -3.8986 3.3586 -4.3027 0.2837 -3.4049 0.0000 -0.0000 -0.0000 0.0000 0.0000 0.0000 1.6240 -0.2238 -0.0063 1.9422 -0.7248 1.9204 -0.0000 0.0000 -0.0000 1.6272 3.1113 -5.3649 -0.0000 0.0000 -0.0000 -34.0830 -2.3292 2.3400 -43.2063 -14.6867 -17.5544 -10.4955 5.0486 50.7564 15.2200 -3.3967 -1.1268 -0.0000 0.0000 -0.0000 35.2921 5.2786 3.6289 39.6297 5.4452 -17.0676 10.6117 -2.8556 26.0470 -13.1853 -0.4817 -0.5597 0.0000 0.0000 0.0000 1.3184 1.9422 2.0054 0.5186 3.7294 4.9850 2.3848 -0.0833 -5.2127 0.0000 0.0000 -0.0000
43.0184 39.8314 81.4690 -178.8680 1.7629 178.2160 0.0000 0.0000 0.0000 3.7091 -0.6849 1.7326 -0.7520 -3.8610 3.3389 -4.3685 0.2879 -3.3925 0.0000 -0.0000 -0.0000 0.0000 0.0000 0.0000 1.8727 -0.2036 0.0330 1.5669 -0.6386 1.8475 -0.0000 0.0000 -0.0000 1.5444 3.2469 -5.4090 -0.0000 0.0000 -0.0000 -33.8550 -2.3389 2.3304 -43.4462 -14.7628 -17.6997 -10.3570 5.0383 51.1459 15.3004 -3.2749 -1.1178 -0.0000 0.0000 -0.0000 35.4853 5.3092 3.6589 39.5287 5.0344 -17.1073 10.6141 -2.8206 26.0504 -13.0828 -0.3066 -0.5738 0.0000 0.0000 0.0000 1.4943 2.2228 1.9154 0.1844 3.4930 5.0384 2.5824 -0.0960 -5.2350 0.0000 0.0000 -0.0000
43.0269 39.8304 81.4854 -178.8460 1.7206 178.3070 0.0000 0.0000 0.0000 3.7385 -0.6701 1.5985 -0.7317 -3.9068 3.3514 -4.3747 0.2883 -3.3751 0.0000 -0.0000 -0.0000 0.0000 0.0000 0.0000 2.0896 -0.1838 0.0995 1.2654 -0.5657 1.7337 -0.0000 0.0000 -0.0000 1.4101 3.2401 -5.4057 -0.0000 0.0000 -0.0000 -33.5571 -2.3412 2.3138 -43.8415 -14.8799 -17.7260 -10.2719 5.0324 51.3732 15.2114 -3.2292 -1.1054 -0.0000 0.0000 -0.0000 35.5765 5.3071 3.6663 39.6038 4.8007 -17.4071 10.5086 -2.9109 26.2854 -13.0136 -0.1309 -0.5893 0.0000 0.0000 0.0000 1.6173 2.3884 1.7166 -0.0098 3.2854 5.1820 2.7625 -0.1076 -5.2776 0.0000 0.0000 -0.0000
